<svg width="24" height="24" viewBox="0 0 24 24" fill="none" xmlns="http://www.w3.org/2000/svg">
    <path d="M9.5 4C8.67157 4 8 4.67157 8 5.5V18.5C8 19.3284 8.67157 20 9.5 20C10.3284 20 11 19.3284 11 18.5V5.5C11 4.67157 10.3284 4 9.5 4Z" fill="currentColor"></path>
    <path d="M13 8.5C13 7.67157 13.6716 7 14.5 7H15.3284C16 7 16.5 7.67157 16.5 8.5V15.5C16.5 16.3284 16 17 15.3284 17H14.5C13.6716 17 13 16.3284 13 15.5V8.5Z" fill="currentColor"></path>
    <path d="M4.5 9C3.67157 9 3 9.67157 3 10.5V13.5C3 14.3284 3.67157 15 4.5 15H5.32843C6 15 6.5 14.3284 6.5 13.5V10.5C6.5 9.67157 6 9 5.32843 9H4.5Z" fill="currentColor"></path>
    <path d="M19.5 9C18.6716 9 18 9.67157 18 10.5V13.5C18 14.3284 18.6716 15 19.5 15H20.3284C21 15 21.5 14.3284 21.5 13.5V10.5C21.5 9.67157 21 9 20.3284 9H19.5Z" fill="currentColor"></path>
</svg>
